<?xml version="1.0" encoding="UTF-8" standalone="no"?>
<svg
   xmlns:dc="http://purl.org/dc/elements/1.1/"
   xmlns:cc="http://creativecommons.org/ns#"
   xmlns:rdf="http://www.w3.org/1999/02/22-rdf-syntax-ns#"
   xmlns:svg="http://www.w3.org/2000/svg"
   xmlns="http://www.w3.org/2000/svg"
   xmlns:xlink="http://www.w3.org/1999/xlink"
   xmlns:sodipodi="http://sodipodi.sourceforge.net/DTD/sodipodi-0.dtd"
   xmlns:inkscape="http://www.inkscape.org/namespaces/inkscape"
   width="505px"
   height="500px"
   viewBox="0 0 505 500"
   version="1.1"
   id="svg2"
   inkscape:version="0.48.2 r9819"
   sodipodi:docname="super-simple-puzzle-logo.svg">
  <metadata
     id="metadata21">
    <rdf:RDF>
      <cc:Work
         rdf:about="">
        <dc:format>image/svg+xml</dc:format>
        <dc:type
           rdf:resource="http://purl.org/dc/dcmitype/StillImage" />
      </cc:Work>
    </rdf:RDF>
  </metadata>
  <sodipodi:namedview
     pagecolor="#ffffff"
     bordercolor="#666666"
     borderopacity="1"
     objecttolerance="10"
     gridtolerance="10"
     guidetolerance="10"
     inkscape:pageopacity="0"
     inkscape:pageshadow="2"
     inkscape:window-width="924"
     inkscape:window-height="697"
     id="namedview19"
     showgrid="false"
     inkscape:zoom="0.472"
     inkscape:cx="-13.389831"
     inkscape:cy="229.87288"
     inkscape:window-x="0"
     inkscape:window-y="22"
     inkscape:window-maximized="0"
     inkscape:current-layer="svg2" />
  <title
     id="title4">Slice 2</title>
  <description
     id="description6">Created with Sketch (http://www.bohemiancoding.com/sketch)</description>
  <defs
     id="defs8">
    <linearGradient
       x1="50%"
       y1="0%"
       x2="50%"
       y2="100%"
       id="linearGradient-1">
      <stop
         stop-color="#FFFFFF"
         stop-opacity="0"
         offset="0%"
         id="stop11" />
      <stop
         stop-color="#000000"
         stop-opacity="0.17"
         offset="100%"
         id="stop13" />
    </linearGradient>
    <path
       d="M235.5,439 C123.662333,439 33,348.337667 33,236.5 C33,124.662333 123.662333,34 235.5,34 C347.337667,34 438,124.662333 438,236.5 C438,348.337667 347.337667,439 235.5,439 Z M197.368391,104.874223 L167.553501,74 L77,161.446499 L103.955973,189.535303 C97.9726021,189.654692 92.0173775,191.945771 87.3728636,196.430926 C77.6050277,205.863615 77.3333379,221.428715 86.7660274,231.196551 C96.1987169,240.964387 111.763816,241.236077 121.531652,231.803387 C126.176166,227.318232 128.673684,221.446593 129.001816,215.471033 L164.446499,252 L193.129174,224.301463 C189.708995,223.066103 186.511227,221.049781 183.814636,218.257379 C174.381947,208.489543 174.653637,192.924444 184.421472,183.491754 C194.189308,174.059065 209.754408,174.330754 219.187097,184.09859 C221.883689,186.890992 223.787182,190.15718 224.902427,193.618389 L255,164.553501 L226.551461,135.094176 C225.450192,139.316481 223.211017,143.298757 219.842481,146.551715 C210.074645,155.984405 194.509545,155.712715 185.076856,145.944879 C175.644166,136.177043 175.915856,120.611944 185.683692,111.179254 C189.052229,107.926296 193.110225,105.827465 197.368391,104.874223 Z M197.368391,104.874223"
       id="path-2" />
    <linearGradient
       inkscape:collect="always"
       xlink:href="#linearGradient-1"
       id="linearGradient2998"
       x1="235.5"
       y1="34"
       x2="235.5"
       y2="439"
       gradientUnits="userSpaceOnUse" />
  </defs>
  <use
     height="500"
     width="505"
     y="0"
     x="0"
     style="fill:#3892e3;fill-rule:evenodd;stroke:none"
     xlink:href="#path-2"
     id="Oval 1 copy"
     transform="translate(17,13.5)" />
</svg>
